nColumns=19
nRows=123
DataType=double
version=3
OpenSimVersion=4.1
endheader
time	ground_force_calcn_r_vx	ground_force_calcn_r_vy	ground_force_calcn_r_vz	ground_force_calcn_r_px	ground_force_calcn_r_py	ground_force_calcn_r_pz	ground_force_calcn_r_mx	ground_force_calcn_r_my	ground_force_calcn_r_mz	ground_force_calcn_l_vx	ground_force_calcn_l_vy	ground_force_calcn_l_vz	ground_force_calcn_l_px	ground_force_calcn_l_py	ground_force_calcn_l_pz	ground_force_calcn_l_mx	ground_force_calcn_l_my	ground_force_calcn_l_mz
1.35	-252.005	1379.04	26.7765	0.946691	0	-0.336122	0.752742	-4.11922	-0.0799817	0	0	0	0	0	0	0	0	0
1.35833	-289.012	1429.17	18.2463	0.923414	0	-0.336909	0.910638	-4.50312	-0.0574917	0	0	0	0	0	0	0	0	0
1.36667	-299.459	1502.27	1.43031	0.895032	0	-0.337711	0.783955	-3.9328	-0.00374441	0	0	0	0	0	0	0	0	0
1.375	-270.21	1609.74	-8.45715	0.863332	0	-0.336477	0.438163	-2.6103	0.0137138	0	0	0	0	0	0	0	0	0
1.38333	-214.127	1714.07	-8.01079	0.830929	0	-0.333806	0.0985583	-0.788952	0.0036872	0	0	0	0	0	0	0	0	0
1.39167	-149.698	1771.64	-6.0073	0.799126	0	-0.331592	-0.103882	1.22943	-0.00416875	0	0	0	0	0	0	0	0	0
1.4	-88.4022	1764.1	-9.2781	0.767597	0	-0.330557	-0.156935	3.1317	-0.0164708	0	0	0	0	0	0	0	0	0
1.40833	-30.5424	1701.15	-14.6811	0.735144	0	-0.329814	-0.0829735	4.62145	-0.0398836	0	0	0	0	0	0	0	0	0
1.41667	27.2312	1600.47	-15.2266	0.701499	0	-0.328398	0.0928253	5.45568	-0.0519042	0	0	0	0	0	0	0	0	0
1.425	86.345	1470.83	-8.65262	0.667425	0	-0.326513	0.323386	5.50865	-0.0324065	0	0	0	0	0	0	0	0	0
1.43333	141.166	1314.7	2.11723	0.633734	0	-0.325067	0.517885	4.82315	0.00776731	0	0	0	0	0	0	0	0	0
1.44167	181.874	1134.77	13.4885	0.600831	0	-0.324509	0.578597	3.61004	0.0429112	0	0	0	0	0	0	0	0	0
1.45	203.191	936.989	23.3533	0.568898	0	-0.324395	0.472388	2.17836	0.0542929	0	0	0	0	0	0	0	0	0
1.45833	204.214	730.26	30.2026	0.537291	0	-0.324011	0.234919	0.840062	0.0347438	0	0	0	0	0	0	0	0	0
1.46667	187.396	527.884	32.4694	0.505034	0	-0.322866	-0.0599636	-0.168914	-0.0103897	0	0	0	0	0	0	0	0	0
1.475	155.499	346.672	29.3384	0.474106	0	-0.320625	-0.331365	-0.73875	-0.0625193	0	0	0	0	0	0	0	0	0
1.48333	112.82	202.49	21.9303	0.450709	0	-0.316611	-0.507946	-0.911668	-0.0987367	0	0	0	0	0	0	0	0	0
1.49167	69.0456	103.912	13.336	0.444937	0	-0.308524	-0.563123	-0.84749	-0.108766	0	0	0	0	0	0	0	0	0
1.5	35.489	48.1962	6.8506	0.477772	0	-0.285394	-0.533555	-0.724598	-0.102994	0	0	0	0	0	0	0	0	0
1.50833	16.4268	23.7509	3.70485	0.58942	0	-0.217687	-0.471215	-0.681311	-0.106276	0	0	0	0	0	0	0	0	0
1.51667	6.93882	14.8116	2.75497	0.688776	0	-0.11648	-0.366949	-0.783289	-0.145693	0	0	0	0	0	0	0	0	0
1.525	1.59476	10.0041	2.44162	0.564419	0	-0.0213217	-0.149757	-0.939436	-0.229281	0	0	0	0	0	0	0	0	0
1.53333	0	0	0	0	0	0	0	0	0	0	0	0	0	0	0	0	0	0
1.54167	0	0	0	0	0	0	0	0	0	0	0	0	0	0	0	0	0	0
1.55	0	0	0	0	0	0	0	0	0	0	0	0	0	0	0	0	0	0
1.55833	0	0	0	0	0	0	0	0	0	0	0	0	0	0	0	0	0	0
1.56667	0	0	0	0	0	0	0	0	0	0	0	0	0	0	0	0	0	0
1.575	0	0	0	0	0	0	0	0	0	0	0	0	0	0	0	0	0	0
1.58333	0	0	0	0	0	0	0	0	0	0	0	0	0	0	0	0	0	0
1.59167	0	0	0	0	0	0	0	0	0	-0.279455	11.2762	0.270669	0.508319	0	-0.140902	0.0364233	-1.46971	-0.0352781
1.6	0	0	0	0	0	0	0	0	0	-5.52227	19.7191	-2.38228	0.746996	0	-0.239404	0.396099	-1.4144	0.170875
1.60833	0	0	0	0	0	0	0	0	0	-18.1091	53.2279	-6.49637	0.915388	0	-0.338856	0.485705	-1.42763	0.17424
1.61667	0	0	0	0	0	0	0	0	0	-42.1632	151.001	-11.076	0.952874	0	-0.37166	0.418388	-1.49839	0.109908
1.625	0	0	0	0	0	0	0	0	0	-76.9056	357.069	-14.0229	0.958975	0	-0.378934	0.306948	-1.42515	0.0559686
1.63333	0	0	0	0	0	0	0	0	0	-113.42	664.845	-13.6412	0.956715	0	-0.378278	0.188964	-1.10766	0.022727
1.64167	0	0	0	0	0	0	0	0	0	-146.572	972.696	-12.161	0.949018	0	-0.374949	0.0782184	-0.519082	0.00648978
1.65	0	0	0	0	0	0	0	0	0	-179.132	1166.54	-16.2812	0.93685	0	-0.37284	-0.0362724	0.236212	-0.00329678
1.65833	0	0	0	0	0	0	0	0	0	-215.432	1250.34	-28.8953	0.919499	0	-0.375125	-0.15412	0.894496	-0.0206717
1.66667	0	0	0	0	0	0	0	0	0	-250.515	1317.29	-40.529	0.896273	0	-0.380418	-0.212732	1.11862	-0.0344164
1.675	0	0	0	0	0	0	0	0	0	-264.243	1432.97	-36.8518	0.868643	0	-0.383066	-0.124866	0.677138	-0.017414
1.68333	0	0	0	0	0	0	0	0	0	-243.834	1583.45	-16.4408	0.838134	0	-0.381972	0.0675779	-0.438848	0.00455651
1.69167	0	0	0	0	0	0	0	0	0	-196.11	1708.85	5.94908	0.805994	0	-0.381233	0.226562	-1.97421	-0.00687286
1.7	0	0	0	0	0	0	0	0	0	-135.712	1767.56	16.1479	0.772789	0	-0.383205	0.270137	-3.51835	-0.0321425
1.70833	0	0	0	0	0	0	0	0	0	-70.8071	1761.74	14.7662	0.73879	0	-0.386632	0.189669	-4.71911	-0.0395537
1.71667	0	0	0	0	0	0	0	0	0	-2.48578	1715.57	11.873	0.704604	0	-0.389029	0.00780568	-5.38711	-0.0372826
1.725	0	0	0	0	0	0	0	0	0	65.81	1640	12.8807	0.671154	0	-0.389699	-0.219475	-5.46938	-0.0429567
1.73333	0	0	0	0	0	0	0	0	0	128.618	1528.16	14.4796	0.638571	0	-0.389737	-0.420455	-4.9956	-0.0473343
1.74167	0	0	0	0	0	0	0	0	0	181.571	1374.12	11.6772	0.605443	0	-0.390108	-0.535997	-4.0564	-0.034471
1.75	0	0	0	0	0	0	0	0	0	221.313	1183.1	3.648	0.571133	0	-0.390603	-0.525834	-2.81101	-0.00866756
1.75833	0	0	0	0	0	0	0	0	0	243.738	969.239	-6.93712	0.537637	0	-0.390263	-0.374148	-1.48782	0.0106488
1.76667	0	0	0	0	0	0	0	0	0	244.799	748.187	-16.8133	0.507678	0	-0.388454	-0.1125	-0.343839	0.00772676
1.775	0	0	0	0	0	0	0	0	0	224.034	535.281	-23.7368	0.482806	0	-0.385087	0.171316	0.409322	-0.0181512
1.78333	0	0	0	0	0	0	0	0	0	184.038	347.26	-26.6599	0.463315	0	-0.38059	0.357993	0.675494	-0.0518591
1.79167	0	0	0	0	0	0	0	0	0	130.219	200.117	-25.281	0.447529	0	-0.375648	0.339672	0.522	-0.0659446
1.8	0	0	0	0	0	0	0	0	0	75.7338	101.394	-20.0539	0.428369	0	-0.36905	0.0973217	0.130296	-0.0257702
1.80833	0	0	0	0	0	0	0	0	0	36.2904	46.9828	-12.7852	0.40572	0	-0.347953	-0.275868	-0.357148	0.0971888
1.81667	0	0	0	0	0	0	0	0	0	15.673	22.9975	-6.18266	0.433584	0	-0.289034	-0.648956	-0.952236	0.256
1.825	0	0	0	0	0	0	0	0	0	6.27862	12.9424	-1.99	0.558383	0	-0.20452	-0.8527	-1.75771	0.270262
1.83333	0	0	0	0	0	0	0	0	0	0	0	0	0	0	0	0	0	0
1.84167	0	0	0	0	0	0	0	0	0	0	0	0	0	0	0	0	0	0
1.85	0	0	0	0	0	0	0	0	0	0	0	0	0	0	0	0	0	0
1.85833	0	0	0	0	0	0	0	0	0	0	0	0	0	0	0	0	0	0
1.86667	0	0	0	0	0	0	0	0	0	0	0	0	0	0	0	0	0	0
1.875	0	0	0	0	0	0	0	0	0	0	0	0	0	0	0	0	0	0
1.88333	0	0	0	0	0	0	0	0	0	0	0	0	0	0	0	0	0	0
1.89167	0	0	0	0	0	0	0	0	0	0	0	0	0	0	0	0	0	0
1.9	0.9613	9.9587	0.844233	0.773831	0	-0.0375012	-0.0399414	-0.413778	-0.0350773	0	0	0	0	0	0	0	0	0
1.90833	-4.33093	16.4438	-1.29003	0.831251	0	-0.138785	0.0292664	-0.111119	0.00871738	0	0	0	0	0	0	0	0	0
1.91667	-14.2407	41.856	-4.74429	0.832531	0	-0.242428	0.0252812	-0.0743059	0.00842242	0	0	0	0	0	0	0	0	0
1.925	-32.1247	116.971	-9.5387	0.868174	0	-0.281371	0.104207	-0.379435	0.0309419	0	0	0	0	0	0	0	0	0
1.93333	-59.5017	284.018	-14.676	0.895052	0	-0.293758	0.226945	-1.08327	0.0559756	0	0	0	0	0	0	0	0	0
1.94167	-90.1053	558.027	-17.4126	0.902617	0	-0.297966	0.342158	-2.119	0.0661212	0	0	0	0	0	0	0	0	0
1.95	-118.332	871.377	-15.2881	0.897541	0	-0.298853	0.443866	-3.26856	0.0573462	0	0	0	0	0	0	0	0	0
1.95833	-148.205	1113.39	-10.423	0.88519	0	-0.298421	0.561178	-4.21585	0.0394666	0	0	0	0	0	0	0	0	0
1.96667	-185.252	1254.8	-9.55653	0.867245	0	-0.29816	0.688099	-4.66084	0.0354968	0	0	0	0	0	0	0	0	0
1.975	-217.447	1354.52	-16.7599	0.843862	0	-0.29878	0.716288	-4.4619	0.0552087	0	0	0	0	0	0	0	0	0
1.98333	-220.824	1466.11	-28.2168	0.815741	0	-0.29935	0.554343	-3.68044	0.0708337	0	0	0	0	0	0	0	0	0
1.99167	-188.86	1591.6	-37.0409	0.784397	0	-0.29892	0.295146	-2.48732	0.0578868	0	0	0	0	0	0	0	0	0
2	-135.103	1699.4	-40.8947	0.752164	0	-0.297885	0.0887001	-1.11572	0.0268489	0	0	0	0	0	0	0	0	0
2.00833	-75.5035	1759.6	-42.2151	0.720678	0	-0.296889	-0.00786193	0.183221	-0.00439572	0	0	0	0	0	0	0	0	0
2.01667	-18.4212	1760.7	-43.0364	0.689476	0	-0.296043	-0.0126773	1.2117	-0.0296173	0	0	0	0	0	0	0	0	0
2.025	38.2524	1709.81	-42.6959	0.656871	0	-0.29505	0.0414625	1.85329	-0.0462789	0	0	0	0	0	0	0	0	0
2.03333	98.8293	1620.78	-39.9108	0.622678	0	-0.293861	0.125963	2.06576	-0.0508682	0	0	0	0	0	0	0	0	0
2.04167	159.424	1502.72	-34.5894	0.588242	0	-0.292838	0.198268	1.86886	-0.0430171	0	0	0	0	0	0	0	0	0
2.05	210.899	1357.96	-27.3538	0.554423	0	-0.292379	0.207304	1.33481	-0.0268875	0	0	0	0	0	0	0	0	0
2.05833	246.482	1187.06	-18.6635	0.521459	0	-0.292592	0.119388	0.574974	-0.00903998	0	0	0	0	0	0	0	0	0
2.06667	263.128	995.329	-9.0173	0.489339	0	-0.293086	-0.0723775	-0.273781	0.00248035	0	0	0	0	0	0	0	0	0
2.075	259.701	792.136	0.300372	0.457696	0	-0.29327	-0.348804	-1.06392	-0.00040343	0	0	0	0	0	0	0	0	0
2.08333	236.977	589.383	7.27679	0.426553	0	-0.292883	-0.668109	-1.66165	-0.0205155	0	0	0	0	0	0	0	0	0
2.09167	198.159	402.971	10.4444	0.397638	0	-0.291906	-0.973526	-1.97974	-0.0513118	0	0	0	0	0	0	0	0	0
2.1	149.077	249.137	10.0914	0.374775	0	-0.290278	-1.20299	-2.01044	-0.0814339	0	0	0	0	0	0	0	0	0
2.10833	98.6835	138.102	7.96249	0.363138	0	-0.28709	-1.31096	-1.83463	-0.105778	0	0	0	0	0	0	0	0	0
2.11667	56.2259	69.714	5.7474	0.377471	0	-0.277133	-1.29181	-1.60171	-0.132049	0	0	0	0	0	0	0	0	0
2.125	26.7386	33.6406	4.08053	0.458744	0	-0.24941	-1.17572	-1.4792	-0.179424	0	0	0	0	0	0	0	0	0
2.13333	9.7002	16.4935	2.91338	0.625742	0	-0.194502	-0.929419	-1.58031	-0.279144	0	0	0	0	0	0	0	0	0
2.14167	0	0	0	0	0	0	0	0	0	0	0	0	0	0	0	0	0	0
2.15	0	0	0	0	0	0	0	0	0	0	0	0	0	0	0	0	0	0
2.15833	0	0	0	0	0	0	0	0	0	0	0	0	0	0	0	0	0	0
2.16667	0	0	0	0	0	0	0	0	0	0	0	0	0	0	0	0	0	0
2.175	0	0	0	0	0	0	0	0	0	0	0	0	0	0	0	0	0	0
2.18333	0	0	0	0	0	0	0	0	0	0	0	0	0	0	0	0	0	0
2.19167	0	0	0	0	0	0	0	0	0	0	0	0	0	0	0	0	0	0
2.2	0	0	0	0	0	0	0	0	0	0	0	0	0	0	0	0	0	0
2.20833	0	0	0	0	0	0	0	0	0	-1.28729	13.9359	-0.353565	0.589465	0	-0.202876	-0.00814821	0.0882106	-0.00223797
2.21667	0	0	0	0	0	0	0	0	0	-10.2154	36.4999	-2.1827	0.805699	0	-0.347696	0.0757541	-0.270672	0.0161863
2.225	0	0	0	0	0	0	0	0	0	-31.6419	114.761	-2.80764	0.870581	0	-0.394624	0.218157	-0.791225	0.0193574
2.23333	0	0	0	0	0	0	0	0	0	-70.3829	307.87	0.664032	0.886765	0	-0.402283	0.30107	-1.31694	-0.00284046
2.24167	0	0	0	0	0	0	0	0	0	-114.131	637.473	9.9453	0.89016	0	-0.398809	0.28124	-1.57085	-0.024507
2.25	0	0	0	0	0	0	0	0	0	-137.894	1003.03	20.2985	0.88517	0	-0.392455	0.180193	-1.3107	-0.026525
2.25833	0	0	0	0	0	0	0	0	0	-142.19	1250.33	19.9695	0.87231	0	-0.388615	0.0585622	-0.514958	-0.0082246
2.26667	0	0	0	0	0	0	0	0	0	-154.634	1351.47	3.33695	0.852983	0	-0.391223	-0.0569552	0.497777	0.00122907
2.275	0	0	0	0	0	0	0	0	0	-179.847	1395.3	-15.3616	0.830532	0	-0.398308	-0.14992	1.16312	-0.0128054
2.28333	0	0	0	0	0	0	0	0	0	-194.869	1458.97	-13.2282	0.80707	0	-0.402611	-0.131351	0.983414	-0.00891642
2.29167	0	0	0	0	0	0	0	0	0	-182.357	1546.69	14.2	0.78061	0	-0.402091	0.0220716	-0.187204	-0.0017187
2.3	0	0	0	0	0	0	0	0	0	-141.187	1616.18	46.8247	0.749367	0	-0.401775	0.180518	-2.06641	-0.059869
2.30833	0	0	0	0	0	0	0	0	0	-79.9018	1637.56	63.3408	0.713848	0	-0.405133	0.199764	-4.09409	-0.15836
2.31667	0	0	0	0	0	0	0	0	0	-10.0011	1616.7	62.2526	0.676432	0	-0.410053	0.0353573	-5.71559	-0.220084
2.325	0	0	0	0	0	0	0	0	0	56.4991	1568.93	55.5993	0.640418	0	-0.412733	-0.236687	-6.5726	-0.232917
2.33333	0	0	0	0	0	0	0	0	0	115.604	1494.36	49.8827	0.607009	0	-0.412489	-0.506192	-6.54332	-0.21842
2.34167	0	0	0	0	0	0	0	0	0	167.695	1384.11	41.3077	0.574669	0	-0.411281	-0.689795	-5.69339	-0.169915
2.35	0	0	0	0	0	0	0	0	0	208.116	1233.18	26.064	0.541076	0	-0.410709	-0.715045	-4.23696	-0.0895507
2.35833	0	0	0	0	0	0	0	0	0	231.146	1047.54	6.91252	0.505735	0	-0.410529	-0.552022	-2.50173	-0.0165084
2.36667	0	0	0	0	0	0	0	0	0	233.51	842.954	-10.5314	0.471708	0	-0.409467	-0.23841	-0.860643	0.0107524
